<?xml version="1.0" encoding="UTF-8"?>
<svg version="1.1" viewBox="0 0 900 900" width="1280" height="1280" xmlns="http://www.w3.org/2000/svg">
<path transform="translate(0)" d="m0 0h900v900h-900z" fill="#FEFFFE"/>
<path transform="translate(483,344)" d="m0 0h47l9 4 6 4 6 10 2 6v15l-3 10-6 9-9 5-11 2h-20v18l-1 1h-19l-1-57z" fill="#579BA1"/>
<path transform="translate(583,344)" d="m0 0h23l5 10 17 40 13 31v3h-22l-3-12-42-1-2 6-3 7h-21l8-20 18-43 7-16z" fill="#589CA2"/>
<path transform="translate(412,344)" d="m0 0h23l5 12 30 70v2h-22l-4-10v-2h-43l-2 11-2 1h-20l3-10 11-25 18-43z" fill="#579BA1"/>
<path transform="translate(737,344)" d="m0 0h22l6 13 14 33 15 35v3h-20l-2-2-3-9-2-1-40-1-3 11-2 2h-21l1-4 10-23 11-26 12-28z" fill="#579BA1"/>
<path transform="translate(229,344)" d="m0 0h22l7 15 24 56 4 10v3h-12l-9-1-4-10-2-1h-39l-4 8-1 3-4 1h-17l1-6 12-28 11-26 10-23z" fill="#579BA1"/>
<path transform="translate(324,343)" d="m0 0h20l11 4 10 7 5 4 2 3-1 4-10 6-5 2-5-6-10-5-10-1-11 4-6 5-4 8v14l4 8 5 5 8 4h12l9-4 5-4 2-3 5 1 12 8-2 5-9 9-8 5-13 3h-12l-12-3-10-5-6-5-8-12-3-9-1-5v-10l4-13 7-10 9-8 8-4z" fill="#579BA1"/>
<path transform="translate(143,343)" d="m0 0h14l12 3 10 6 5 4v2h2l2 3-1 4-7 5h-2l-1 3-5-2-10-7-9-3-10 1-8 4-7 8-2 5v11l3 8 7 8 10 4h8l12-6 6-5 6 1 10 7-1 4-5 6-11 7-10 4-4 1h-14l-14-4-10-7-6-7-6-11-2-10v-8l2-10 6-12 5-6 10-7 9-3z" fill="#579BA1"/>
<path transform="translate(623,344)" d="m0 0h23l16 37 9 21 8-16 11-26 5-12 2-4h22l-3 10-15 32-13 30-6 12h-22l-9-21-11-23-12-27-5-11z" fill="#589CA2"/>
<path transform="translate(569,490)" d="m0 0h10l5 5 2 5v14l-4 18-5 13-7 9-8 3h-7l-5-5-2-5v-14l3-16 5-14 6-8 4-4z" fill="#FEFFFE"/>
<path transform="translate(330,490)" d="m0 0h9l5 4 3 7-2 19-5 19-5 10-5 5-7 3h-7l-5-4-2-5-1-11 3-17 5-15 5-8 5-5z" fill="#FEFFFE"/>
<path transform="translate(454,486)" d="m0 0 2 1 5 47 2 20v6l-4-1-2-13v-9h-24l-12 22-5 1 2-6 13-23 10-20 11-20z" fill="#3E5A61"/>
<path transform="translate(386,491)" d="m0 0h10l7 2 4 5v10l-4 10-5 5-9 3-13 1 1-10 5-23 1-2z" fill="#FEFFFE"/>
<path transform="translate(503,491)" d="m0 0h15l7 3 2 4v9l-4 9-8 7-3 1h-16l1-8 5-24z" fill="#FEFFFE"/>
<path transform="translate(571,486)" d="m0 0h7l7 3 4 6 1 4v14l-3 16-5 15-6 9-1 4 3 6-1 3-4-1-1-7-7 2h-12l-5-3-4-8v-19l5-20 7-14 4-5 6-4zm-2 4-5 3-7 8-5 13-3 12-1 7v14l3 7 4 3h7l8-3 7-9 6-16 3-15v-14l-4-8-3-2z" fill="#3E5960"/>
<path transform="translate(331,486)" d="m0 0h7l8 3 5 10v11l-4 20-6 17-7 9-8 4-9 1-7-2-5-8-1-4v-13l4-20 7-16 8-9zm-1 4-6 3-6 8-5 12-4 16-1 12 2 10 4 5 2 1h7l7-3 5-5 5-10 5-19 2-19-4-8-4-3z" fill="#3E5960"/>
<path transform="translate(212,486)" d="m0 0h8l7 3 4 8 1 7-5-1-2-8-4-4-6-1-9 4-6 8-4 9-4 16-1 6v14l3 7 3 2h9l8-4 5-7 4-12 1-5h-18v-3l13-1 10 1-1 9-6 25-4 1 1-6 1-2-10 7-7 2-9-1-6-5-3-9 1-16 5-19 4-9 6-9 6-5z" fill="#3E5960"/>
<path transform="translate(501,487)" d="m0 0 22 1 5 3 3 6 1 7-4 11-7 8-7 4 1 5 9 23v5l-4-1-5-12-6-16v-3l-14 1-6 28-1 3h-4l2-11 7-33 6-28zm2 4-3 9-4 20v4h16l6-3 7-8 2-6v-9l-3-5-6-2z" fill="#3E595F"/>
<path transform="translate(308,440)" d="m0 0 46 1v15l-1 1h-16l-31-1 1-15z" fill="#589CA2"/>
<path transform="translate(504,363)" d="m0 0h18l7 2 3 4v13l-6 7-10 2h-11l-1-1z" fill="#FEFFFE"/>
<path transform="translate(618,486)" d="m0 0 2 1-5 25-6 29v8l4 6 3 1h7l7-3 5-8 4-14 9-42 2-3h2v7l-11 50-5 10-5 4-6 3h-12l-6-4-3-5v-12l9-41 3-10z" fill="#3E5A61"/>
<path transform="translate(681,487)" d="m0 0h12l23 1-1 3h-32l-5 26-1 3h19l4 1v2l-8 1h-16l-5 26-1 5 30 1v3l-5 1h-31l2-11 13-61z" fill="#3F5D63"/>
<path transform="translate(380,488)" d="m0 0h23l7 6 1 3v12l-4 10-5 6-10 4-17 1-6 28-2 3-3-1 9-43 6-27zm6 3-3 1-2 5-5 25v5l13-1 11-4 6-10 1-4v-10l-4-5-7-2z" fill="#3E5960"/>
<path transform="translate(262,487)" d="m0 0 34 1v3h-32l-5 26-1 3h18l4 1v3l-23 1-6 30 30 1 1 3-12 1h-11l-14-1 4-19 10-46 1-6z" fill="#3E5A61"/>
<path transform="translate(452,498)" d="m0 0h1l2 14 1 12v10h-21l1-5 15-30z" fill="#FEFFFE"/>
<path transform="translate(422,368)" d="m0 0h2l8 18 4 11v2l-25-1 1-6 7-16z" fill="#FEFFFE"/>
<path transform="translate(594,369)" d="m0 0 4 4 10 23v2h-26l1-4 10-24z" fill="#FEFFFE"/>
<path transform="translate(747,369)" d="m0 0 4 4 9 21v4h-25l1-5 10-23z" fill="#FEFFFE"/>
<path transform="translate(238,369)" d="m0 0h3l4 9 7 17v3h-25l3-9z" fill="#FEFFFE"/>
</svg>
